#!OML:ASF F:\VICON\USERDATA\INSTALL\rory3\rory3.ASF
:FULLY-SPECIFIED
:DEGREES
294
root 1.06262 17.8981 20.6327 -9.08157 3.18897 4.23902
lowerback 16.8914 -1.01571 -6.02612
upperback 1.4051 -2.35255 1.4663
thorax -7.65746 -0.915982 5.55319
lowerneck -9.84734 -0.0794979 -2.02909
upperneck 28.7443 0.832328 -1.83508
head 10.8724 -0.0577671 -0.212438
rclavicle -3.21783e-014 7.15625e-015
rhumerus -36.3666 -11.3258 -78.0511
rradius 29.9486
rwrist 1.04404
rhand -14.3212 14.6905
rfingers 7.12502
rthumb 11.8194 -14.956
lclavicle -3.21783e-014 7.15625e-015
lhumerus -34.5568 -2.77781 86.9759
lradius 40.7186
lwrist 6.57975
lhand -13.9962 50.4155
lfingers 7.12502
lthumb 12.1328 80.0437
rfemur -26.561 -5.42556 16.5069
rtibia 49.9579
rfoot -9.5109 -11.2895
rtoes 3.47787
lfemur 5.27635 -4.45549 -31.3752
ltibia 25.3717
lfoot -15.0583 1.02374
ltoes -1.22154
295
root 1.05549 17.9001 20.7759 -8.9237 3.16084 4.16362
lowerback 16.7081 -1.01878 -5.99601
upperback 1.53286 -2.33474 1.48689
thorax -7.41969 -0.921636 5.54153
lowerneck -10.2647 -0.0872947 -1.88368
upperneck 28.7617 0.828307 -1.92186
head 10.9631 -0.0570259 -0.269741
rclavicle 1.38404e-014 -7.95139e-016
rhumerus -36.1177 -11.4594 -78.1782
rradius 29.7096
rwrist 1.21811
rhand -14.0733 14.2368
rfingers 7.12502
rthumb 12.0585 -15.3957
lclavicle 1.38404e-014 -7.95139e-016
lhumerus -34.1021 -2.97139 86.844
lradius 40.9523
lwrist 6.79581
lhand -14.2683 50.2153
lfingers 7.12502
lthumb 11.8704 79.8588
rfemur -26.5035 -4.80607 16.5572
rtibia 46.9049
rfoot -9.7334 -12.0149
rtoes 5.59272
lfemur 6.149 -4.53905 -31.3145
ltibia 24.5145
lfoot -15.1507 1.1553
ltoes -2.34949
296
root 1.04 17.9108 20.9135 -8.68653 2.97148 3.66904
lowerback 16.8849 -1.03136 -5.58947
upperback 1.06169 -2.28843 1.59241
thorax -8.04894 -0.872794 5.43767
lowerneck -9.48043 -0.0741408 -1.66118
upperneck 28.8751 0.786186 -1.95782
head 10.8491 -0.0537555 -0.326496
rclavicle -9.06955e-015 0
rhumerus -37.1 -11.2565 -78.2011
rradius 29.6582
rwrist 1.32672
rhand -13.8098 12.1629
rfingers 7.12502
rthumb 12.3125 -17.4546
lclavicle -9.06955e-015 0
lhumerus -34.631 -3.26822 86.716
lradius 41.1841
lwrist 7.12777
lhand -14.4208 50.3929
lfingers 7.12502
lthumb 11.7234 80.0448
rfemur -26.4006 -3.8726 17.1624
rtibia 43.6139
rfoot -10.0015 -13.0868
rtoes 5.80576
lfemur 6.81834 -4.56932 -30.709
ltibia 23.6327
lfoot -15.199 1.35273
ltoes -3.1617
297
root 1.03263 17.9183 21.0721 -8.48956 2.97109 3.7335
lowerback 16.0691 -1.04432 -5.66434
upperback 1.39841 -2.26916 1.55775
thorax -7.23092 -0.904279 5.38914
lowerneck -9.85016 -0.10432 -1.51396
upperneck 28.7408 0.747654 -2.05748
head 10.8723 -0.0676475 -0.392111
rclavicle 2.64881e-014 -1.66979e-014
rhumerus -36.7251 -11.2877 -78.4421
rradius 29.3751
rwrist 1.46859
rhand -13.8844 11.3574
rfingers 7.12502
rthumb 12.2406 -18.2643
lclavicle 2.64881e-014 -1.66979e-014
lhumerus -33.707 -3.39518 86.5403
lradius 41.0738
lwrist 7.32641
lhand -14.6705 50.274
lfingers 7.12502
lthumb 11.4826 79.9396
rfemur -26.0645 -3.22814 16.9954
rtibia 40.2736
rfoot -10.1807 -13.8482
rtoes 5.23952
lfemur 7.73999 -4.70599 -30.8204
ltibia 22.6098
lfoot -15.2757 1.54078
ltoes -3.50698
298
root 1.02599 17.9396 21.2245 -8.24905 3.04335 3.64933
lowerback 16.0578 -1.08909 -5.60156
upperback 1.22353 -2.31564 1.62074
thorax -7.40793 -0.91637 5.43654
lowerneck -9.8014 -0.0901541 -1.68773
upperneck 28.7459 0.775508 -1.95662
head 10.8642 -0.0614403 -0.322232
rclavicle 7.52897e-015 1.59028e-015
rhumerus -37.1323 -10.86 -78.5362
rradius 29.4568
rwrist 1.50873
rhand -13.8911 11.0896
rfingers 7.12502
rthumb 12.2341 -18.5326
lclavicle 7.52897e-015 1.59028e-015
lhumerus -33.7347 -3.34336 86.4655
lradius 41.2901
lwrist 7.34595
lhand -14.9562 49.8421
lfingers 7.12502
lthumb 11.207 79.5227
rfemur -25.7748 -2.43806 16.912
rtibia 36.8958
rfoot -10.2551 -14.6611
rtoes 5.82579
lfemur 8.57338 -4.80855 -30.7401
ltibia 21.5373
lfoot -15.2443 1.68135
ltoes -3.89118
299
root 1.02139 17.958 21.375 -7.95625 3.27154 4.06746
lowerback 15.8321 -1.10612 -5.95178
upperback 1.14007 -2.40047 1.48732
thorax -7.35371 -0.948729 5.50164
lowerneck -9.72152 -0.121921 -1.77729
upperneck 28.6878 0.70674 -1.81973
head 10.8251 -0.0849244 -0.265158
rclavicle 4.91992e-014 7.95139e-016
rhumerus -37.3814 -10.6784 -78.6469
rradius 29.5928
rwrist 1.63285
rhand -13.6755 10.4481
rfingers 7.12502
rthumb 12.442 -19.1616
lclavicle 4.91992e-014 7.95139e-016
lhumerus -33.7218 -3.4662 86.3592
lradius 41.7142
lwrist 7.29339
lhand -15.5607 50.0401
lfingers 7.12502
lthumb 10.6239 79.7516
rfemur -25.5304 -1.67978 16.1838
rtibia 33.6482
rfoot -10.5139 -15.3453
rtoes 6.97574
lfemur 9.3915 -4.92314 -31.2255
ltibia 20.3606
lfoot -15.0631 1.79166
ltoes -3.46007
